%TF.GenerationSoftware,Altium Limited,Altium Designer,24.4.1 (13)*%
G04 Layer_Color=0*
%FSLAX45Y45*%
%MOMM*%
%TF.SameCoordinates,7B1AB626-E082-4622-BD47-E970353866B2*%
%TF.FilePolarity,Positive*%
%TF.FileFunction,Plated,1,2,PTH,Drill*%
%TF.Part,Single*%
G01*
G75*
%TA.AperFunction,ComponentDrill*%
%ADD26C,1.00000*%
%ADD27C,1.00000*%
%TA.AperFunction,ViaDrill,NotFilled*%
%ADD28C,0.50800*%
D26*
X6705191Y10741789D02*
D03*
Y10513189D02*
D03*
X9548412Y10741789D02*
D03*
Y10513189D02*
D03*
X8325374D02*
D03*
Y10741789D02*
D03*
D27*
X8708623Y12000315D02*
D03*
X8480023D02*
D03*
X7339500D02*
D03*
X7110900D02*
D03*
D28*
X9225000Y11800000D02*
D03*
X7772400Y11785600D02*
D03*
X9100000Y11675000D02*
D03*
X9225000Y11675000D02*
D03*
X9350000D02*
D03*
X7645400Y11658600D02*
D03*
X7772400D02*
D03*
X7899400D02*
D03*
X7620000Y10718800D02*
D03*
X7550000Y10825000D02*
D03*
X7675000D02*
D03*
X7800000D02*
D03*
X7747000Y10718800D02*
D03*
X9225000Y10750000D02*
D03*
X9093200Y10744200D02*
D03*
X9025000Y10850000D02*
D03*
X9150000D02*
D03*
X9275000D02*
D03*
%TF.MD5,bb68005709e00132c80fc8f8b31dd389*%
M02*
