%TF.GenerationSoftware,Altium Limited,Altium Designer,24.4.1 (13)*%
G04 Layer_Physical_Order=2*
G04 Layer_Color=16711680*
%FSLAX45Y45*%
%MOMM*%
%TF.SameCoordinates,7B1AB626-E082-4622-BD47-E970353866B2*%
%TF.FilePolarity,Positive*%
%TF.FileFunction,Copper,L2,Bot,Signal*%
%TF.Part,Single*%
G01*
G75*
%TA.AperFunction,ComponentPad*%
%ADD15R,2.00000X2.00000*%
%ADD16R,2.00000X2.00000*%
%TA.AperFunction,ViaPad*%
%ADD17C,0.86360*%
G36*
X9725000Y12125000D02*
Y11700000D01*
X9475000Y11450000D01*
X9075000D01*
X9025000Y11500000D01*
Y11700000D01*
X8975000Y11750000D01*
X8250000D01*
X8150000Y11850000D01*
Y12150000D01*
X8250000Y12250000D01*
X9600000D01*
X9725000Y12125000D01*
D02*
G37*
G36*
X7975000Y12175000D02*
Y11475000D01*
X7950000Y11450000D01*
X7625000D01*
X7575000Y11500000D01*
Y11525000D01*
Y11625000D01*
X7450000Y11750000D01*
X6950000D01*
X6800000Y11900000D01*
Y12150000D01*
X6900000Y12250000D01*
X7900000D01*
X7975000Y12175000D01*
D02*
G37*
G36*
X9800000Y10950000D02*
Y10450000D01*
X9738600Y10388600D01*
X6586400D01*
X6550000Y10425000D01*
Y10925000D01*
X6650000Y11025000D01*
X9725000D01*
X9800000Y10950000D01*
D02*
G37*
D15*
X6705191Y10741789D02*
D03*
Y10513189D02*
D03*
X9548412Y10741789D02*
D03*
Y10513189D02*
D03*
X8325374D02*
D03*
Y10741789D02*
D03*
D16*
X8708623Y12000315D02*
D03*
X8480023D02*
D03*
X7339500D02*
D03*
X7110900D02*
D03*
D17*
X9225000Y11800000D02*
D03*
X7772400Y11785600D02*
D03*
X9100000Y11675000D02*
D03*
X9225000Y11675000D02*
D03*
X9350000D02*
D03*
X7645400Y11658600D02*
D03*
X7772400D02*
D03*
X7899400D02*
D03*
X7620000Y10718800D02*
D03*
X7550000Y10825000D02*
D03*
X7675000D02*
D03*
X7800000D02*
D03*
X7747000Y10718800D02*
D03*
X9225000Y10750000D02*
D03*
X9093200Y10744200D02*
D03*
X9025000Y10850000D02*
D03*
X9150000D02*
D03*
X9275000D02*
D03*
%TF.MD5,d47f2d9647f0fb87ada3af6a011f60f0*%
M02*
