M48
;Layer_Color=9474304
;FILE_FORMAT=4:4
METRIC,LZ
;TYPE=PLATED
T01F00S00C0.5080
T02F00S00C1.0000
%
T01
X00762Y0107188
X007747
X0078Y010825
X007675
X00755
X0076454Y0116586
X0077724
Y0117856
X0078994Y0116586
X0091Y011675
X009225Y011675
Y0118
X00935Y011675
X009275Y01085
X00915
X009025
X0090932Y0107442
X009225Y01075
T02
X00670519Y01051319
Y01074179
X00832537
Y01051319
X00954841
Y01074179
X00870862Y01200032
X00848002
X0073395
X0071109
M30
